<?xml version="1.0" encoding="UTF-8" standalone="no"?>
<!DOCTYPE svg PUBLIC "-//W3C//DTD SVG 1.1//EN"
 "http://www.w3.org/Graphics/SVG/1.1/DTD/svg11.dtd">
<!-- Generated by graphviz version 2.40.1 (20161225.0304)
 -->
<!-- Title: dependencies Pages: 1 -->
<svg width="594pt" height="284pt"
 viewBox="0.00 0.00 594.00 284.00" xmlns="http://www.w3.org/2000/svg" xmlns:xlink="http://www.w3.org/1999/xlink">
<g id="graph0" class="graph" transform="scale(1 1) rotate(0) translate(4 280)">
<title>dependencies</title>
<polygon fill="#ffffff" stroke="transparent" points="-4,4 -4,-280 590,-280 590,4 -4,4"/>
<text text-anchor="start" x="272.0091" y="-42.4" font-family="sans-serif" font-weight="bold" font-size="14.00" fill="#000000">Legend</text>
<polygon fill="#ffffb3" stroke="transparent" points="59,-10 59,-30 79,-30 79,-10 59,-10"/>
<text text-anchor="start" x="82.629" y="-15.4" font-family="sans-serif" font-size="14.00" fill="#000000"> &#160;Declarations</text>
<polygon fill="#8dd3c7" stroke="transparent" points="172,-10 172,-30 192,-30 192,-10 172,-10"/>
<text text-anchor="start" x="195.7251" y="-15.4" font-family="sans-serif" font-size="14.00" fill="#000000"> &#160;Module</text>
<polygon fill="#80b1d3" stroke="transparent" points="258,-10 258,-30 278,-30 278,-10 258,-10"/>
<text text-anchor="start" x="281.7812" y="-15.4" font-family="sans-serif" font-size="14.00" fill="#000000"> &#160;Bootstrap</text>
<polygon fill="#fdb462" stroke="transparent" points="355,-10 355,-30 375,-30 375,-10 355,-10"/>
<text text-anchor="start" x="378.6732" y="-15.4" font-family="sans-serif" font-size="14.00" fill="#000000"> &#160;Providers</text>
<polygon fill="#fb8072" stroke="transparent" points="451,-10 451,-30 471,-30 471,-10 451,-10"/>
<text text-anchor="start" x="474.7258" y="-15.4" font-family="sans-serif" font-size="14.00" fill="#000000"> &#160;Exports</text>
<g id="clust1" class="cluster">
<title>cluster_AppModule</title>
<polygon fill="none" stroke="#000000" stroke-dasharray="1,5" points="8,-70 8,-268 578,-268 578,-70 8,-70"/>
</g>
<g id="clust2" class="cluster">
<title>cluster_AppModule_declarations</title>
<polygon fill="none" stroke="#000000" points="16,-78 16,-130 570,-130 570,-78 16,-78"/>
</g>
<g id="clust9" class="cluster">
<title>cluster_AppModule_bootstrap</title>
<polygon fill="none" stroke="#000000" points="238,-208 238,-260 362,-260 362,-208 238,-208"/>
</g>
<!-- AppComponent -->
<g id="node1" class="node">
<title>AppComponent</title>
<polygon fill="#ffffb3" stroke="#000000" points="561.9399,-122 456.0601,-122 456.0601,-86 561.9399,-86 561.9399,-122"/>
<text text-anchor="middle" x="509" y="-99.8" font-family="Times,serif" font-size="14.00" fill="#000000">AppComponent</text>
</g>
<!-- AppModule -->
<g id="node5" class="node">
<title>AppModule</title>
<polygon fill="#8dd3c7" stroke="#000000" points="341.6571,-187 338.6571,-191 317.6571,-191 314.6571,-187 258.3429,-187 258.3429,-151 341.6571,-151 341.6571,-187"/>
<text text-anchor="middle" x="300" y="-164.8" font-family="Times,serif" font-size="14.00" fill="#000000">AppModule</text>
</g>
<!-- AppComponent&#45;&gt;AppModule -->
<g id="edge1" class="edge">
<title>AppComponent&#45;&gt;AppModule</title>
<path fill="none" stroke="#000000" d="M509,-122.1061C509,-141.3391 509,-169 509,-169 509,-169 351.792,-169 351.792,-169"/>
<polygon fill="#000000" stroke="#000000" points="351.792,-165.5001 341.792,-169 351.7919,-172.5001 351.792,-165.5001"/>
</g>
<!-- TodoAddComponent -->
<g id="node2" class="node">
<title>TodoAddComponent</title>
<polygon fill="#ffffb3" stroke="#000000" points="438.4916,-122 303.5084,-122 303.5084,-86 438.4916,-86 438.4916,-122"/>
<text text-anchor="middle" x="371" y="-99.8" font-family="Times,serif" font-size="14.00" fill="#000000">TodoAddComponent</text>
</g>
<!-- TodoAddComponent&#45;&gt;AppModule -->
<g id="edge2" class="edge">
<title>TodoAddComponent&#45;&gt;AppModule</title>
<path fill="none" stroke="#000000" d="M322.6662,-122.1061C322.6662,-122.1061 322.6662,-140.991 322.6662,-140.991"/>
<polygon fill="#000000" stroke="#000000" points="319.1663,-140.9909 322.6662,-150.991 326.1663,-140.991 319.1663,-140.9909"/>
</g>
<!-- TodoComponent -->
<g id="node3" class="node">
<title>TodoComponent</title>
<polygon fill="#ffffb3" stroke="#000000" points="285.3851,-122 174.6149,-122 174.6149,-86 285.3851,-86 285.3851,-122"/>
<text text-anchor="middle" x="230" y="-99.8" font-family="Times,serif" font-size="14.00" fill="#000000">TodoComponent</text>
</g>
<!-- TodoComponent&#45;&gt;AppModule -->
<g id="edge3" class="edge">
<title>TodoComponent&#45;&gt;AppModule</title>
<path fill="none" stroke="#000000" d="M271.8072,-122.1061C271.8072,-122.1061 271.8072,-140.991 271.8072,-140.991"/>
<polygon fill="#000000" stroke="#000000" points="268.3072,-140.9909 271.8072,-150.991 275.3072,-140.991 268.3072,-140.9909"/>
</g>
<!-- TodoListComponent -->
<g id="node4" class="node">
<title>TodoListComponent</title>
<polygon fill="#ffffb3" stroke="#000000" points="156.1638,-122 23.8362,-122 23.8362,-86 156.1638,-86 156.1638,-122"/>
<text text-anchor="middle" x="90" y="-99.8" font-family="Times,serif" font-size="14.00" fill="#000000">TodoListComponent</text>
</g>
<!-- TodoListComponent&#45;&gt;AppModule -->
<g id="edge4" class="edge">
<title>TodoListComponent&#45;&gt;AppModule</title>
<path fill="none" stroke="#000000" d="M90,-122.1061C90,-141.3391 90,-169 90,-169 90,-169 248.2597,-169 248.2597,-169"/>
<polygon fill="#000000" stroke="#000000" points="248.2597,-172.5001 258.2597,-169 248.2596,-165.5001 248.2597,-172.5001"/>
</g>
<!-- AppComponent  -->
<g id="node6" class="node">
<title>AppComponent </title>
<polygon fill="#80b1d3" stroke="#000000" points="354.439,-252 245.561,-252 245.561,-216 354.439,-216 354.439,-252"/>
<text text-anchor="middle" x="300" y="-229.8" font-family="Times,serif" font-size="14.00" fill="#000000">AppComponent </text>
</g>
<!-- AppModule&#45;&gt;AppComponent  -->
<g id="edge5" class="edge">
<title>AppModule&#45;&gt;AppComponent </title>
<path fill="none" stroke="#000000" stroke-dasharray="1,5" d="M300,-187.1061C300,-187.1061 300,-205.991 300,-205.991"/>
<polygon fill="#000000" stroke="#000000" points="296.5001,-205.9909 300,-215.991 303.5001,-205.991 296.5001,-205.9909"/>
</g>
</g>
</svg>
